<svg width="64" height="64" viewBox="0 0 64 64" xmlns="http://www.w3.org/2000/svg">
  <defs>
    <linearGradient id="mapGradient" x1="0%" y1="0%" x2="100%" y2="100%">
      <stop offset="0%" style="stop-color:#4A90E2;stop-opacity:1" />
      <stop offset="100%" style="stop-color:#357ABD;stop-opacity:1" />
    </linearGradient>
    <linearGradient id="regionGradient" x1="0%" y1="0%" x2="100%" y2="100%">
      <stop offset="0%" style="stop-color:#7ED321;stop-opacity:1" />
      <stop offset="100%" style="stop-color:#5BA517;stop-opacity:1" />
    </linearGradient>
  </defs>
  
  <!-- Background circle -->
  <circle cx="32" cy="32" r="30" fill="#2A2A2A" stroke="#4A90E2" stroke-width="2"/>
  
  <!-- Map outline -->
  <path d="M12 20 L52 16 L48 44 L8 48 Z" fill="url(#mapGradient)" stroke="#357ABD" stroke-width="1"/>
  
  <!-- Regions -->
  <circle cx="20" cy="28" r="4" fill="url(#regionGradient)"/>
  <circle cx="32" cy="24" r="3" fill="url(#regionGradient)"/>
  <circle cx="44" cy="30" r="5" fill="url(#regionGradient)"/>
  <circle cx="28" cy="36" r="3" fill="url(#regionGradient)"/>
  <circle cx="40" cy="40" r="4" fill="url(#regionGradient)"/>
  
  <!-- Paths between regions -->
  <path d="M20 28 L32 24" stroke="#FFD700" stroke-width="1.5" fill="none"/>
  <path d="M32 24 L44 30" stroke="#FFD700" stroke-width="1.5" fill="none"/>
  <path d="M20 28 L28 36" stroke="#FFD700" stroke-width="1.5" fill="none"/>
  <path d="M44 30 L40 40" stroke="#FFD700" stroke-width="1.5" fill="none"/>
  
  <!-- Compass rose -->
  <g transform="translate(48, 12)">
    <circle cx="0" cy="0" r="3" fill="#FFD700"/>
    <line x1="0" y1="-3" x2="0" y2="3" stroke="#FFD700" stroke-width="1"/>
    <line x1="-3" y1="0" x2="3" y2="0" stroke="#FFD700" stroke-width="1"/>
    <polygon points="0,-2 1,0 0,1 -1,0" fill="#FFD700"/>
  </g>
</svg>
