<svg width="64" height="64" viewBox="0 0 64 64" xmlns="http://www.w3.org/2000/svg">
  <defs>
    <linearGradient id="soulGradient" x1="0%" y1="0%" x2="100%" y2="100%">
      <stop offset="0%" style="stop-color:#8B0000;stop-opacity:1" />
      <stop offset="100%" style="stop-color:#DC143C;stop-opacity:1" />
    </linearGradient>
    <linearGradient id="silkGradient" x1="0%" y1="0%" x2="100%" y2="100%">
      <stop offset="0%" style="stop-color:#FF6B35;stop-opacity:1" />
      <stop offset="100%" style="stop-color:#F7931E;stop-opacity:1" />
    </linearGradient>
    <radialGradient id="glowGradient" cx="50%" cy="50%" r="50%">
      <stop offset="0%" style="stop-color:#FFD700;stop-opacity:0.8" />
      <stop offset="100%" style="stop-color:#FFD700;stop-opacity:0" />
    </radialGradient>
  </defs>
  
  <!-- Background circle -->
  <circle cx="32" cy="32" r="30" fill="#2A2A2A" stroke="#DC143C" stroke-width="2"/>
  
  <!-- Soul vessel -->
  <ellipse cx="32" cy="32" rx="16" ry="20" fill="url(#soulGradient)" stroke="#8B0000" stroke-width="2"/>
  
  <!-- Silk threads weaving around soul -->
  <path d="M16 20 Q32 10 48 20 Q32 30 16 20" stroke="url(#silkGradient)" stroke-width="2" fill="none"/>
  <path d="M16 44 Q32 34 48 44 Q32 54 16 44" stroke="url(#silkGradient)" stroke-width="2" fill="none"/>
  <path d="M20 16 Q20 32 20 48 Q20 32 20 16" stroke="url(#silkGradient)" stroke-width="1.5" fill="none"/>
  <path d="M44 16 Q44 32 44 48 Q44 32 44 16" stroke="url(#silkGradient)" stroke-width="1.5" fill="none"/>
  
  <!-- Soul essence -->
  <circle cx="32" cy="32" r="8" fill="url(#glowGradient)"/>
  <circle cx="32" cy="32" r="4" fill="#FFD700"/>
  
  <!-- Challenge spikes -->
  <polygon points="32,8 28,16 36,16" fill="#DC143C"/>
  <polygon points="32,56 28,48 36,48" fill="#DC143C"/>
  <polygon points="8,32 16,28 16,36" fill="#DC143C"/>
  <polygon points="56,32 48,28 48,36" fill="#DC143C"/>
</svg>
